<?xml version="1.0" encoding="UTF-8" standalone="no"?>

<svg
   xmlns:dc="http://purl.org/dc/elements/1.1/"
   xmlns:cc="http://creativecommons.org/ns#"
   xmlns:rdf="http://www.w3.org/1999/02/22-rdf-syntax-ns#"
   xmlns:svg="http://www.w3.org/2000/svg"
   xmlns="http://www.w3.org/2000/svg"
   xmlns:xlink="http://www.w3.org/1999/xlink"
   xmlns:sodipodi="http://sodipodi.sourceforge.net/DTD/sodipodi-0.dtd"
   xmlns:inkscape="http://www.inkscape.org/namespaces/inkscape"
   width="378.66666"
   height="330.66666"
   id="svg3642"
   sodipodi:version="0.32"
   inkscape:version="0.92.4 (5da689c313, 2019-01-14)"
   sodipodi:docname="decoration.svg"
   inkscape:output_extension="org.inkscape.output.svg.inkscape"
   version="1.0"
   viewBox="0 0 355 310">
  <defs
     id="defs3644">
    <style
       type="text/css"
       id="current-color-scheme">
      .ColorScheme-Text {
        color:#31363b;
        stop-color:#31363b;
      }
      .ColorScheme-Background {
        color:#eff0f1;
        stop-color:#eff0f1;
      }
      .ColorScheme-Highlight {
        color:#3daee9;
        stop-color:#3daee9;
      }
      </style>
    <radialGradient
       inkscape:collect="always"
       xlink:href="#linearGradient5391"
       id="radialGradient7795-5-5"
       gradientUnits="userSpaceOnUse"
       gradientTransform="matrix(-3.8857148,-2.652078e-4,3.0787599e-4,-4.4500098,682.51212,995.34172)"
       cx="48.27084"
       cy="177.37585"
       fx="48.27084"
       fy="177.37585"
       r="17.5" />
    <linearGradient
       id="linearGradient5391">
      <stop
         id="stop7028"
         offset="0"
         style="stop-color:#000000;stop-opacity:0.92168677;" />
      <stop
         id="stop7026"
         offset="0.125"
         style="stop-color:#000000;stop-opacity:0.74096388;" />
      <stop
         id="stop6834"
         offset="0.25"
         style="stop-color:#000000;stop-opacity:0.60240966;" />
      <stop
         id="stop6832"
         offset="0.5"
         style="stop-color:#000000;stop-opacity:0.33132529;" />
      <stop
         style="stop-color:#000000;stop-opacity:0.10843374;"
         offset="0.75"
         id="stop6836" />
      <stop
         id="stop6894"
         offset="0.875"
         style="stop-color:#000000;stop-opacity:0.03921569;" />
      <stop
         id="stop6721"
         offset="1"
         style="stop-color:#000000;stop-opacity:0;" />
    </linearGradient>
    <radialGradient
       inkscape:collect="always"
       xlink:href="#linearGradient5391"
       id="radialGradient7795-4"
       gradientUnits="userSpaceOnUse"
       gradientTransform="matrix(-3.8857148,-2.652078e-4,3.0787599e-4,-4.4500098,682.51212,995.34172)"
       cx="48.27084"
       cy="177.37585"
       fx="48.27084"
       fy="177.37585"
       r="17.5" />
    <linearGradient
       inkscape:collect="always"
       xlink:href="#linearGradient5391"
       id="linearGradient5521"
       gradientUnits="userSpaceOnUse"
       gradientTransform="matrix(-1,0,0,1,605,17.8125)"
       x1="350"
       y1="99"
       x2="280"
       y2="98.9375" />
    <radialGradient
       inkscape:collect="always"
       xlink:href="#linearGradient5391"
       id="radialGradient6995-5"
       gradientUnits="userSpaceOnUse"
       gradientTransform="matrix(-1.0441545e-6,-2.9178503,-4.0000007,1.2788312e-6,576.6671,1071.1385)"
       cx="296.47726"
       cy="80.416679"
       fx="296.47726"
       fy="80.416679"
       r="17.5" />
    <radialGradient
       inkscape:collect="always"
       xlink:href="#linearGradient5391"
       id="radialGradient6192-5"
       gradientUnits="userSpaceOnUse"
       gradientTransform="matrix(-1.0906637e-6,-2.9178322,4.0000026,-1.649289e-6,-211.66655,1071.0572)"
       cx="296.45123"
       cy="80.416672"
       fx="296.45123"
       fy="80.416672"
       r="17.5" />
    <linearGradient
       inkscape:collect="always"
       xlink:href="#linearGradient5391"
       id="linearGradient5519"
       gradientUnits="userSpaceOnUse"
       gradientTransform="translate(-239.875,-0.9375)"
       x1="349.875"
       y1="99"
       x2="279.875"
       y2="98.9375" />
    <linearGradient
       inkscape:collect="always"
       xlink:href="#linearGradient5391"
       id="linearGradient5517"
       gradientUnits="userSpaceOnUse"
       gradientTransform="translate(-215,140.0625)"
       x1="396"
       y1="66"
       x2="396"
       y2="14.9375" />
    <linearGradient
       inkscape:collect="always"
       xlink:href="#linearGradient5391"
       id="linearGradient5515"
       gradientUnits="userSpaceOnUse"
       gradientTransform="translate(-215,149.0625)"
       x1="398"
       y1="143"
       x2="398"
       y2="220.9375" />
    <radialGradient
       inkscape:collect="always"
       xlink:href="#linearGradient5391"
       id="radialGradient7795-5"
       gradientUnits="userSpaceOnUse"
       gradientTransform="matrix(-3.8857148,-2.652078e-4,3.0787599e-4,-4.4500098,682.51212,995.34172)"
       cx="48.27084"
       cy="177.37585"
       fx="48.27084"
       fy="177.37585"
       r="17.5" />
    <radialGradient
       inkscape:collect="always"
       xlink:href="#linearGradient5391"
       id="radialGradient7795"
       gradientUnits="userSpaceOnUse"
       gradientTransform="matrix(-3.8857148,-2.652078e-4,3.0787599e-4,-4.4500098,682.51212,995.34172)"
       cx="48.27084"
       cy="177.37585"
       fx="48.27084"
       fy="177.37585"
       r="17.5" />
    <linearGradient
       inkscape:collect="always"
       xlink:href="#linearGradient5391"
       id="linearGradient5791"
       gradientUnits="userSpaceOnUse"
       gradientTransform="matrix(-1,0,0,1,600,150.78126)"
       x1="350"
       y1="99"
       x2="280"
       y2="98.9375" />
    <radialGradient
       inkscape:collect="always"
       xlink:href="#linearGradient5391"
       id="radialGradient6995"
       gradientUnits="userSpaceOnUse"
       gradientTransform="matrix(-1.0441545e-6,-2.9178503,-4.0000007,1.2788312e-6,571.6671,1072.8573)"
       cx="296.47726"
       cy="80.416679"
       fx="296.47726"
       fy="80.416679"
       r="17.5" />
    <radialGradient
       inkscape:collect="always"
       xlink:href="#linearGradient5391"
       id="radialGradient6192"
       gradientUnits="userSpaceOnUse"
       gradientTransform="matrix(-1.0906637e-6,-2.9178322,4.0000026,-1.649289e-6,-216.66655,1072.776)"
       cx="296.45123"
       cy="80.416672"
       fx="296.45123"
       fy="80.416672"
       r="17.5" />
    <linearGradient
       inkscape:collect="always"
       xlink:href="#linearGradient5391"
       id="linearGradient5785"
       gradientUnits="userSpaceOnUse"
       gradientTransform="translate(-244.875,150.78126)"
       x1="349.875"
       y1="99"
       x2="279.875"
       y2="98.9375" />
    <linearGradient
       inkscape:collect="always"
       xlink:href="#linearGradient5391"
       id="linearGradient6612"
       gradientUnits="userSpaceOnUse"
       gradientTransform="translate(-220,141.78125)"
       x1="396"
       y1="66"
       x2="396"
       y2="14.9375" />
    <linearGradient
       inkscape:collect="always"
       xlink:href="#linearGradient5391"
       id="linearGradient5688"
       gradientUnits="userSpaceOnUse"
       gradientTransform="translate(-220,150.78125)"
       x1="398"
       y1="143"
       x2="398"
       y2="220.9375" />
  </defs>
  <g
     id="layer1"
     inkscape:label="Layer 1"
     inkscape:groupmode="layer"
     transform="translate(0,-90)">
    <g
       transform="translate(-1453.4451,-465.21909)"
       inkscape:label="layer1"
       style="display:none"
       id="g4418" />
    <g
       transform="translate(-1453.4451,-465.21909)"
       inkscape:label="glow"
       style="display:inline"
       id="layer2" />
    <g
       inkscape:label="layer1"
       style="display:none"
       id="g2424"
       transform="translate(975.61592,-1945.0985)" />
    <g
       inkscape:label="glow"
       style="display:inline"
       id="g2426"
       transform="translate(975.61592,-1945.0985)" />
    <g
       inkscape:label="Layer 1"
       id="g3429"
       transform="translate(1021.5937,-976.23581)" />
    <g
       inkscape:label="Layer 1"
       id="g19758"
       transform="translate(2807.8842,-592.77773)" />
    <g
       inkscape:label="Layer 1"
       id="g3935"
       transform="translate(3912.7094,-1471.0471)" />
    <g
       inkscape:label="Layer 1"
       id="g8459"
       transform="translate(1514.8397,-1486.3943)" />
    <g
       inkscape:label="Layer 1"
       id="g28391"
       transform="translate(164.02222,-157.78265)" />
    <g
       inkscape:label="Layer 1"
       id="g28393"
       transform="translate(1268.8474,-1036.052)" />
    <g
       inkscape:label="Layer 1"
       id="g28395"
       transform="translate(-1129.0223,-1051.3992)" />
    <g
       inkscape:label="Layer 1"
       id="g6598"
       transform="translate(2310.5222,-165.78265)" />
    <g
       inkscape:label="Layer 1"
       id="g6640"
       transform="translate(3415.3474,-1044.052)" />
    <g
       inkscape:label="Layer 1"
       id="g6716"
       transform="translate(1017.4777,-1059.3992)" />
    <g
       id="g6850"
       transform="matrix(1,0,0,-1,-153.44508,295.17435)"
       style="opacity:0.45945943" />
    <g
       id="g4240"
       style="display:none"
       inkscape:label="layer1"
       transform="translate(-1919.565,-153.36219)" />
    <g
       id="g4242"
       style="display:inline"
       inkscape:label="glow"
       transform="translate(-1919.565,-153.36219)" />
    <g
       transform="translate(509.49601,-1633.2416)"
       id="g4244"
       style="display:none"
       inkscape:label="layer1" />
    <g
       transform="translate(509.49601,-1633.2416)"
       id="g4246"
       style="display:inline"
       inkscape:label="glow" />
    <g
       transform="translate(555.47381,-664.37887)"
       id="g4248"
       inkscape:label="Layer 1" />
    <g
       transform="translate(2341.7643,-280.92083)"
       id="g4250"
       inkscape:label="Layer 1" />
    <g
       transform="translate(3446.5895,-1159.1902)"
       id="g4252"
       inkscape:label="Layer 1" />
    <g
       transform="translate(1048.7198,-1174.5374)"
       id="g4254"
       inkscape:label="Layer 1" />
    <g
       transform="translate(-302.09768,154.07425)"
       id="g4256"
       inkscape:label="Layer 1" />
    <g
       transform="translate(802.72751,-724.19507)"
       id="g4258"
       inkscape:label="Layer 1" />
    <g
       transform="translate(-1595.1422,-739.54227)"
       id="g4260"
       inkscape:label="Layer 1" />
    <g
       transform="translate(1844.4023,146.07425)"
       id="g4262"
       inkscape:label="Layer 1" />
    <g
       transform="translate(2949.2275,-732.19507)"
       id="g4264"
       inkscape:label="Layer 1" />
    <g
       transform="translate(551.35781,-747.54227)"
       id="g4266"
       inkscape:label="Layer 1" />
    <g
       style="opacity:0.45945943"
       transform="matrix(1,0,0,-1,-619.56498,607.03125)"
       id="g4268" />
    <g
       id="decoration-bottom"
       inkscape:label="#g4269">
      <path
         style="opacity:0.35;fill:url(#linearGradient5688);fill-opacity:1;stroke:none"
         d="m 105,300.78125 v 25 10 5 10 10 25 h 145 v -25 -10 -10 -5 -10 -25 z"
         id="path6217-8"
         inkscape:connector-curvature="0" />
      <path
         id="path6214-7"
         d="M 250,293.78125 H 105 v 7 h 145 z"
         class="ColorScheme-Highlight"
         style="fill:currentColor"
         inkscape:connector-curvature="0" />
      <path
         id="path6211-7"
         d="M 250,293.78125 H 105 v 6 h 145 z"
         style="fill:currentColor"
         class="ColorScheme-Background"
         inkscape:connector-curvature="0" />
    </g>
    <path
       style="fill:currentColor"
       class="ColorScheme-Background"
       d="m 104.99997,207.78125 v 86 h 145 v -86 z"
       id="decoration-center"
       inkscape:connector-curvature="0"
       inkscape:label="#decoration-center" />
    <g
       id="decoration-top"
       inkscape:label="#g4221">
      <path
         style="opacity:0.35;fill:url(#linearGradient6612);fill-opacity:1;stroke:none"
         d="m 105,141.78125 v 15 6 4 10 h 145 v -10 -4 -6 -15 z"
         id="path6055-5"
         inkscape:connector-curvature="0" />
      <path
         id="path6098-4"
         d="m 105,176.78125 v 22 h 145 v -22 z"
         style="fill:currentColor"
         class="ColorScheme-Highlight"
         inkscape:connector-curvature="0" />
      <path
         id="path6095-2"
         d="M 250,177.78125 H 105 v 1 h 145 z"
         style="fill:currentColor"
         class="ColorScheme-Background"
         inkscape:connector-curvature="0" />
      <path
         style="fill:currentColor"
         class="ColorScheme-Background"
         d="m 105,178.78125 v 19.96875 0.0312 9 h 145 v -9 -0.0312 -19.96875 z"
         id="path6092-3"
         inkscape:connector-curvature="0" />
    </g>
    <g
       id="decoration-left"
       inkscape:label="#g4238">
      <path
         style="opacity:0.35;fill:url(#linearGradient5785);fill-opacity:1;stroke:none"
         d="m 0.1250003,207.78126 v 86 H 25.125 h 12 8 4.8125 10.1875 4 H 75 v -86 h -10.875 -4 -10.1875 -4.8125 -8 -12 z"
         id="path6345-1"
         inkscape:connector-curvature="0" />
      <path
         id="path6342-6"
         d="m 75,207.78126 v 86 h 5 v -86 z"
         style="fill:currentColor"
         class="ColorScheme-Highlight"
         inkscape:connector-curvature="0" />
      <path
         style="fill:currentColor"
         class="ColorScheme-Background"
         d="m 76,207.78126 v 86 h 4 10 9.875 4.125 0.875 0.125 v -86 H 104.875 104 99.875 90 80 Z"
         id="path6339-9"
         inkscape:connector-curvature="0" />
    </g>
    <g
       id="decoration-topleft"
       inkscape:label="#g4233">
      <path
         style="opacity:0.35;fill:url(#radialGradient6192);fill-opacity:1;stroke:none"
         d="m 18,141.71875 c -9.9719997,0 -17.9999997,8.028 -17.9999997,18 v 12 9 1 2 15 8.0625 0.9375 0.0625 H 75 v -0.0625 -0.9375 -8.0625 -16.9375 c 0,-2.77 2.23,-5 5,-5 h 10 10 5 v -35 h -5 v -0.0625 H 90 v 0.0625 H 80 v -0.0625 H 62 60 Z"
         id="rect6520-3-2"
         inkscape:connector-curvature="0" />
      <path
         inkscape:connector-curvature="0"
         id="rect5073-2"
         d="m 80,176.78125 c -2.77,0 -5,2.23 -5,5 v 16.9375 0.0625 8 0.9375 0.0625 h 1 v -0.0625 -0.9375 -8 h 4 v -21 h 10 10 5 v -1 h -5 -10 z"
         class="ColorScheme-Highlight"
         style="fill:currentColor" />
      <path
         inkscape:connector-curvature="0"
         id="rect5073-4-1-6"
         d="m 80,177.78125 c -2.216,0 -4,1.784 -4,4 v 0.9375 c 0,-2.17712 1.76038,-3.9375 3.9375,-3.9375 H 80 h 10 10 5 v -1 h -5 -10 z"
         class="ColorScheme-Background"
         style="fill:currentColor" />
      <path
         inkscape:connector-curvature="0"
         id="rect5073-4-9"
         d="m 79.9375,178.78125 c -2.17712,0 -3.9375,1.76038 -3.9375,3.9375 v 16 0.0625 8 0.9375 0.0625 h 24 5 v -1 -28 H 100 90 80 Z"
         class="ColorScheme-Background"
         style="fill:currentColor" />
    </g>
    <g
       id="decoration-topright"
       inkscape:label="#g4227">
      <path
         style="opacity:0.35;fill:url(#radialGradient6995);fill-opacity:1;stroke:none"
         d="m 250,141.78125 v 35 h 25 c 2.77,0 5,2.23 5,5 v 17 9 h 75 v -9 -15 -2 -1 -9 -12 c 0,-9.972 -8.028,-18 -18,-18 h -42 -2 -18 -10 -10 z"
         id="rect6520-3"
         inkscape:connector-curvature="0" />
      <path
         style="fill:currentColor"
         class="ColorScheme-Highlight"
         d="m 250,176.78125 v 1 h 25 v 0.9375 20.0625 h 4 v 8 0.9375 0.0625 h 1 v -0.0625 -0.9375 -8 -0.0625 -16.9375 c 0,-2.77 -2.23,-5 -5,-5 z"
         id="rect5073-8-2"
         inkscape:connector-curvature="0" />
      <path
         style="fill:currentColor"
         class="ColorScheme-Background"
         d="m 250,177.78125 v 1 h 25 0.0625 c 2.17712,0 3.9375,1.76038 3.9375,3.9375 v -0.9375 c 0,-2.216 -1.784,-4 -4,-4 z"
         id="rect5073-4-1-5-9"
         inkscape:connector-curvature="0" />
      <path
         style="fill:currentColor"
         class="ColorScheme-Background"
         d="m 250,178.78125 v 28 0.9375 0.0625 h 29 v -0.0625 -0.9375 -7.96875 -0.0625 -15.96875 c 0,-2.17242 -1.76038,-3.9375 -3.9375,-3.9375 H 275 v -0.0625 h -10 -10 z"
         id="rect5073-4-4-8"
         inkscape:connector-curvature="0" />
    </g>
    <g
       id="decoration-right"
       inkscape:label="#g4274">
      <path
         style="opacity:0.35;fill:url(#linearGradient5791);fill-opacity:1;stroke:none"
         d="m 280,207.78126 v 86 h 11 4 15 8 12 25 v -86 h -25 -12 -8 -15 -4 z"
         id="path6345-7-2"
         inkscape:connector-curvature="0" />
      <path
         id="path6342-0-2"
         d="m 280,207.78126 v 86 h -5 v -86 z"
         style="fill:currentColor"
         class="ColorScheme-Highlight"
         inkscape:connector-curvature="0" />
      <path
         style="fill:currentColor"
         class="ColorScheme-Background"
         d="m 250,207.78126 v 86 h 5 9 0.875 0.125 1 9 4 v -86 h -4 -9 -1 -0.125 -0.875 -9 z"
         id="path6339-8-8"
         inkscape:connector-curvature="0" />
    </g>
    <g
       id="decoration-bottomright"
       inkscape:label="#g4263">
      <g
         transform="matrix(-1,0,0,0.99932111,580,-12.885346)"
         inkscape:label="#g5246"
         id="hrh">
        <path
           inkscape:connector-curvature="0"
           id="rect5099-9"
           transform="matrix(1,0,0,1.0006794,-165,100.73497)"
           d="m 390,206 v 1.9375 15 29.96875 15 c 0,16.60872 13.38,29.96875 30,29.96875 h 15 c 0.90334,0 1.80267,-0.0174 2.6875,-0.0937 0.76218,0.0693 1.53164,0.0937 2.3125,0.0937 h 5 20 5 v 0.0625 h 10 10 5 V 213 h -24 -1 -5 v -5 -2 z"
           style="opacity:0.35;fill:url(#radialGradient7795);fill-opacity:1;stroke:none" />
        <g
           id="decoration-bottomleft57547-54"
           transform="translate(-20,24)"
           inkscape:label="#g6297">
          <g
             id="g6659-3-3" />
        </g>
      </g>
      <path
         inkscape:connector-curvature="0"
         id="rect7015"
         d="m 280,293.78123 v 7 h -30 v -1 h 29 v -6 z"
         class="ColorScheme-Highlight"
         style="fill:currentColor" />
      <rect
         transform="scale(-1,1)"
         y="293.78125"
         x="-279"
         height="6"
         width="29"
         id="rect7023"
         class="ColorScheme-Background"
         style="fill:currentColor" />
    </g>
    <g
       id="decoration-bottomleft"
       inkscape:label="#g4255">
      <g
         transform="matrix(1,0,0,0.99932111,-225,-12.885346)"
         inkscape:label="#g5246"
         id="hrh-6">
        <path
           inkscape:connector-curvature="0"
           id="rect5099-9-5"
           transform="matrix(1,0,0,1.0006794,-165,100.73497)"
           d="m 390,206 v 1.9375 15 29.96875 15 c 0,16.60872 13.38,29.96875 30,29.96875 h 15 c 0.90334,0 1.80267,-0.0174 2.6875,-0.0937 0.76218,0.0693 1.53164,0.0937 2.3125,0.0937 h 5 20 5 v 0.0625 h 10 10 5 V 213 h -24 -1 -5 v -5 -2 z"
           style="opacity:0.35;fill:url(#radialGradient7795-5);fill-opacity:1;stroke:none" />
        <g
           id="decoration-bottomleft57547-54-5"
           transform="translate(-20,24)"
           inkscape:label="#g6297">
          <g
             id="g6659-3-3-0" />
        </g>
      </g>
      <path
         inkscape:connector-curvature="0"
         id="rect7015-4"
         d="m 75,293.78123 v 7 h 30 v -1 H 76 v -6 z"
         class="ColorScheme-Highlight"
         style="fill:currentColor" />
      <rect
         y="293.78125"
         x="76"
         height="6"
         width="29"
         id="rect7023-1"
         class="ColorScheme-Background"
         style="fill:currentColor" />
    </g>
    <g
       id="decoration-inactive-bottom"
       transform="translate(388.75001,1.7187506)">
      <path
         style="opacity:0.35;fill:url(#linearGradient5515);fill-opacity:1;stroke:none"
         d="m 110,299.0625 v 25 10 5 10 10 25 h 145 v -25 -10 -10 -5 -10 -25 z"
         id="path6217-8-7"
         inkscape:connector-curvature="0" />
      <path
         id="path6214-7-44"
         d="M 255,292.0625 H 110 v 7 h 145 z"
         class="ColorScheme-Background"
         style="fill:currentColor" />
         inkscape:connector-curvature="0" />
      <path
         id="path6211-7-3"
         d="M 255,292.0625 H 110 v 6 h 145 z"
         style="fill:currentColor"
         class="ColorScheme-Background"
         inkscape:connector-curvature="0" />
    </g>
    <path
       style="fill:currentColor"
       class="ColorScheme-Background"
       d="m 498.74997,207.78124 v 86 h 144.99999 v -86 z"
       id="decoration-inactive-center"
       inkscape:connector-curvature="0"
       inkscape:label="#decoration-inactive-center" />
    <g
       id="decoration-inactive-top"
       transform="translate(388.75001,1.7187506)"
       inkscape:label="#decoration-inactive-top">
      <path
         style="opacity:0.35;fill:url(#linearGradient5517);fill-opacity:1;stroke:none"
         d="m 110,140.0625 v 15 6 4 10 h 145 v -10 -4 -6 -15 z"
         id="path6055-5-8"
         inkscape:connector-curvature="0" />
      <path
         id="path6098-4-6"
         d="m 110,175.0625 v 22 h 145 v -22 z"
         style="fill:currentColor"
         class="ColorScheme-Background"
         inkscape:connector-curvature="0" />
      <path
         id="path6095-2-8"
         d="M 255,176.0625 H 110 v 1 h 145 z"
         style="fill:currentColor"
         class="ColorScheme-Background"
         inkscape:connector-curvature="0" />
      <path
         style="fill:currentColor"
         class="ColorScheme-Background"
         d="m 110,177.0625 v 19.96875 0.0312 9 h 145 v -9 -0.0312 -19.96875 z"
         id="path6092-3-8"
         inkscape:connector-curvature="0" />
    </g>
    <g
       id="decoration-inactive-left"
       transform="translate(388.75001,151.71874)">
      <path
         style="opacity:0.35;fill:url(#linearGradient5519);fill-opacity:1;stroke:none"
         d="m 5.125,56.0625 v 86 h 25 12 8 4.8125 10.1875 4 H 80 v -86 h -10.875 -4 -10.1875 -4.8125 -8 -12 z"
         id="path6345-1-3"
         inkscape:connector-curvature="0" />
      <path
         id="path6342-6-1"
         d="m 80,56.0625 v 86 h 5 v -86 z"
         style="fill:currentColor"
         class="ColorScheme-Background"
         inkscape:connector-curvature="0" />
      <path
         style="fill:currentColor"
         class="ColorScheme-Background"
         d="m 81,56.0625 v 86 h 4 10 9.875 4.125 0.875 0.125 v -86 H 109.875 109 104.875 95 85 Z"
         id="path6339-9-4"
         inkscape:connector-curvature="0" />
    </g>
    <g
       id="decoration-inactive-topleft"
       inkscape:label="#decoration-inactive-topleft"
       transform="translate(388.75001,1.7187506)">
      <path
         style="opacity:0.35;fill:url(#radialGradient6192-5);fill-opacity:1;stroke:none"
         d="m 23,140 c -9.972,0 -18,8.028 -18,18 v 12 9 1 2 15 8.0625 0.9375 0.0625 H 80 V 206 205.0625 197 180.0625 c 0,-2.77 2.23,-5 5,-5 h 10 10 5 v -35 h -5 V 140 H 95 v 0.0625 H 85 V 140 H 67 65 Z"
         id="rect6520-3-2-2"
         inkscape:connector-curvature="0" />
      <g
         style="fill:currentColor"
         class="ColorScheme-Background"
         transform="translate(-220,-25.0005)"
         inkscape:label="#g5343"
         id="6utrh-0">
        <g
           style="fill:currentColor"
           class="ColorScheme-Background"
           id="decoration-toplefthaerty-6"
           inkscape:label="#g5253"
           transform="translate(0,1)">
          <g
             style="fill:currentColor"
             class="ColorScheme-Background"
             inkscape:label="#g6458"
             transform="translate(-19,25)"
             id="49093u-8">
            <path
               style="fill:currentColor"
               class="ColorScheme-Background"
               d="m 580,90 c -2.77,0 -5,2.23 -5,5 V 111.9375 112 120 120.9375 121 h 1 V 120.9375 120 112 h 4 V 91 h 10 10 5 v -1 h -5 -10 z"
               transform="translate(-256,84.063)"
               id="rect5073-2-9"
               inkscape:connector-curvature="0" />
            <path
               style="fill:currentColor"
               class="ColorScheme-Background"
               d="m 580,91 c -2.216,0 -4,1.784 -4,4 v 0.9375 C 576,93.76038 577.76038,92 579.9375,92 H 580 h 10 10 5 v -1 h -5 -10 z"
               transform="translate(-256,84.063)"
               id="rect5073-4-1-6-2"
               inkscape:connector-curvature="0" />
            <path
               style="fill:currentColor"
               class="ColorScheme-Background"
               d="M 579.9375,92 C 577.76038,92 576,93.76038 576,95.9375 v 16 0.0625 8 0.9375 V 121 h 24 5 v -1 -28 h -5 -10 -10 z"
               transform="translate(-256,84.063)"
               id="rect5073-4-9-66"
               inkscape:connector-curvature="0" />
          </g>
        </g>
      </g>
    </g>
    <g
       id="decoration-inactive-topright"
       transform="translate(388.75001,1.7187506)"
       inkscape:label="#decoration-inactive-topright">
      <path
         style="opacity:0.35;fill:url(#radialGradient6995-5);fill-opacity:1;stroke:none"
         d="m 255,140.0625 v 35 h 25 c 2.77,0 5,2.23 5,5 v 17 9 h 75 v -9 -15 -2 -1 -9 -12 c 0,-9.972 -8.028,-18 -18,-18 h -42 -2 -18 -10 -10 z"
         id="rect6520-3-9"
         inkscape:connector-curvature="0" />
      <g
         style="fill:currentColor"
         class="ColorScheme-Background"
         inkscape:label="#g6067"
         id="decoration-toprightigb-5"
         transform="translate(80,-25)">
        <g
           style="fill:currentColor"
           class="ColorScheme-Background"
           transform="matrix(-1,0,0,1,524,26)"
           id="decoration-topright8989-0"
           inkscape:label="#g6458-7">
          <path
             style="fill:currentColor"
             class="ColorScheme-Background"
             d="m 750,90 v 1 h 25 V 91.9375 112 h 4 v 8 0.9375 V 121 h 1 V 120.9375 120 112 111.9375 95 c 0,-2.77 -2.23,-5 -5,-5 z"
             transform="matrix(-1,0,0,1,1099,84.0625)"
             id="rect5073-8-2-4"
             inkscape:connector-curvature="0" />
          <path
             style="fill:currentColor"
             class="ColorScheme-Background"
             d="m 750,91 v 1 h 25 0.0625 C 777.23962,92 779,93.76038 779,95.9375 V 95 c 0,-2.216 -1.784,-4 -4,-4 z"
             transform="matrix(-1,0,0,1,1099,84.0625)"
             id="rect5073-4-1-5-9-8"
             inkscape:connector-curvature="0" />
          <path
             style="fill:currentColor"
             class="ColorScheme-Background"
             d="m 750,92 v 28 0.9375 V 121 h 29 V 120.9375 120 112.03125 111.96875 96 c 0,-2.17242 -1.76038,-3.9375 -3.9375,-3.9375 H 775 V 92 h -10 -10 z"
             transform="matrix(-1,0,0,1,1099,84.0625)"
             id="rect5073-4-4-8-7"
             inkscape:connector-curvature="0" />
        </g>
      </g>
    </g>
    <g
       id="decoration-inactive-right"
       transform="translate(388.75001,132.96875)">
      <path
         style="opacity:0.35;fill:url(#linearGradient5521);fill-opacity:1;stroke:none"
         d="m 285,74.8125 v 86 h 11 4 15 8 12 25 v -86 h -25 -12 -8 -15 -4 z"
         id="path6345-7-2-7"
         inkscape:connector-curvature="0" />
      <path
         id="path6342-0-2-2"
         d="m 285,74.8125 v 86 h -5 v -86 z"
         style="fill:currentColor"
         class="ColorScheme-Background"
         inkscape:connector-curvature="0" />
      <path
         style="fill:currentColor"
         class="ColorScheme-Background"
         d="m 255,74.8125 v 86 h 5 9 0.875 0.125 1 9 4 v -86 h -4 -9 -1 -0.125 -0.875 -9 z"
         id="path6339-8-8-7"
         inkscape:connector-curvature="0" />
    </g>
    <g
       id="decoration-inactive-bottomright"
       transform="translate(388.75001,1.7187506)">
      <g
         transform="matrix(-1,0,0,0.99932111,585,-14.604097)"
         inkscape:label="#g5246"
         id="hrh-2">
        <path
           inkscape:connector-curvature="0"
           id="rect5099-9-61"
           transform="matrix(1,0,0,1.0006794,-165,100.73497)"
           d="m 390,206 v 1.9375 15 29.96875 15 c 0,16.60872 13.38,29.96875 30,29.96875 h 15 c 0.90334,0 1.80267,-0.0174 2.6875,-0.0937 0.76218,0.0693 1.53164,0.0937 2.3125,0.0937 h 5 20 5 v 0.0625 h 10 10 5 V 213 h -24 -1 -5 v -5 -2 z"
           style="opacity:0.35;fill:url(#radialGradient7795-4);fill-opacity:1;stroke:none" />
        <g
           id="decoration-bottomleft57547-54-0"
           transform="translate(-20,24)"
           inkscape:label="#g6297">
          <g
             id="g6659-3-3-6" />
        </g>
      </g>
      <path
         inkscape:connector-curvature="0"
         id="rect7015-1"
         d="m 285,292.06248 v 7 h -30 v -1 h 29 v -6 z"
         class="ColorScheme-Background"
         style="fill:currentColor" />
      <rect
         transform="scale(-1,1)"
         y="292.0625"
         x="-284"
         height="6"
         width="29"
         id="rect7023-5"
         class="ColorScheme-Background"
         style="fill:currentColor" />
    </g>
    <g
       id="decoration-inactive-bottomleft"
       transform="translate(388.75001,1.7187506)">
      <g
         transform="matrix(1,0,0,0.99932111,-220,-14.604097)"
         inkscape:label="#g5246"
         id="hrh-6-4">
        <path
           inkscape:connector-curvature="0"
           id="rect5099-9-5-9"
           transform="matrix(1,0,0,1.0006794,-165,100.73497)"
           d="m 390,206 v 1.9375 15 29.96875 15 c 0,16.60872 13.38,29.96875 30,29.96875 h 15 c 0.90334,0 1.80267,-0.0174 2.6875,-0.0937 0.76218,0.0693 1.53164,0.0937 2.3125,0.0937 h 5 20 5 v 0.0625 h 10 10 5 V 213 h -24 -1 -5 v -5 -2 z"
           style="opacity:0.35;fill:url(#radialGradient7795-5-5);fill-opacity:1;stroke:none" />
        <g
           id="decoration-bottomleft57547-54-5-0"
           transform="translate(-20,24)"
           inkscape:label="#g6297">
          <g
             id="g6659-3-3-0-9" />
        </g>
      </g>
      <path
         inkscape:connector-curvature="0"
         id="rect7015-4-1"
         d="m 80,292.06248 v 7 h 30 v -1 H 81 v -6 z"
         class="ColorScheme-Background"
         style="fill:currentColor" />
      <rect
         y="292.0625"
         x="81"
         height="6"
         width="29"
         id="rect7023-1-7"
         class="ColorScheme-Background"
         style="fill:currentColor" />
    </g>
    <path
       inkscape:connector-curvature="0"
       style="fill:#000000"
       d="m 104.95164,-173.34451 c -0.48492,0 -0.94185,0.0867 -1.37078,0.26039 -0.42898,0.15594 -0.81127,0.38159 -1.14697,0.67647 -0.31702,0.29484 -0.56884,0.64176 -0.75535,1.04073 -0.18639,0.39893 -0.27959,0.82389 -0.27959,1.27486 0,0.45101 0.0932,0.88464 0.27959,1.3009 0.18639,0.39897 0.43829,0.74585 0.75535,1.04073 0.33574,0.29485 0.71799,0.52905 1.14697,0.70251 0.42893,0.17336 0.88586,0.26039 1.37078,0.26039 0.48489,0 0.94182,-0.0867 1.37076,-0.26039 0.42897,-0.17335 0.80194,-0.40763 1.119,-0.70251 0.31702,-0.29484 0.55952,-0.64176 0.72735,-1.04073 0.1864,-0.41626 0.27959,-0.84989 0.27959,-1.3009 0,-0.45097 -0.0932,-0.87593 -0.27959,-1.27486 -0.16767,-0.39897 -0.41029,-0.74589 -0.72735,-1.04077 -0.31702,-0.29484 -0.69003,-0.52034 -1.119,-0.67647 -0.42894,-0.17335 -0.88587,-0.26003 -1.37076,-0.26003 z m 118.30643,3.90271 c -1.95827,0 -3.76731,0.31225 -5.42716,0.93664 -1.64121,0.62443 -3.0586,1.63049 -4.2522,3.01811 -1.17496,1.38765 -2.09814,3.2089 -2.76954,5.46382 -0.67139,2.23755 -1.00709,4.96944 -1.00709,8.19571 0,3.24357 0.3449,5.91479 1.03505,8.01358 0.69007,2.08143 1.61325,3.72925 2.76954,4.94344 1.15632,1.21419 2.48979,2.06409 4.00042,2.54976 1.51066,0.46834 3.08659,0.70251 4.7278,0.70251 1.64122,0 3.23579,-0.22557 4.78373,-0.67647 1.56662,-0.45097 2.94669,-1.14481 4.14029,-2.08146 1.1936,-0.93664 2.1541,-2.12483 2.88145,-3.56449 0.72735,-1.43965 1.09101,-3.14819 1.09101,-5.12556 0,-1.31824 -0.16768,-2.49776 -0.50353,-3.53849 -0.31702,-1.04069 -0.75535,-1.95133 -1.31483,-2.73189 -0.54085,-0.79789 -1.18429,-1.4657 -1.93028,-2.00338 -0.72735,-0.55505 -1.50134,-1.00606 -2.32192,-1.35294 -0.82063,-0.34707 -1.65986,-0.59843 -2.51776,-0.75452 -0.8579,-0.15595 -1.67853,-0.2341 -2.4618,-0.2341 -1.02577,0 -1.96759,0.0867 -2.82549,0.26039 -0.8579,0.17335 -1.63189,0.40759 -2.32193,0.70247 -0.69003,0.27744 -1.29615,0.6071 -1.81836,0.98869 -0.52221,0.38159 -0.96982,0.78056 -1.34283,1.19682 0.27997,-2.39364 0.6248,-4.33634 1.03509,-5.82804 0.42893,-1.4917 0.94182,-2.65385 1.53862,-3.48645 0.5968,-0.83256 1.29619,-1.39628 2.09814,-1.69116 0.80195,-0.29484 1.70649,-0.4423 2.71358,-0.4423 0.87655,0 1.6039,0.13889 2.18206,0.41626 0.57812,0.27744 1.04437,0.63314 1.39875,1.06677 0.35445,0.41626 0.5968,0.89327 0.72735,1.43099 0.14934,0.52035 0.22382,1.02339 0.22382,1.50903 h 6.07057 c 0,-1.1101 -0.25171,-2.14213 -0.75531,-3.09615 -0.50357,-0.95398 -1.2216,-1.78657 -2.1541,-2.49772 -0.9325,-0.71118 -2.05151,-1.26623 -3.35698,-1.66516 -1.30552,-0.4163 -2.7509,-0.62443 -4.33616,-0.62443 z m -63.13965,0.98869 c -0.22382,0.27743 -0.65276,0.6678 -1.28687,1.17081 -0.63408,0.50301 -1.3428,1.03206 -2.1261,1.58712 -0.78331,0.53771 -1.59458,1.04939 -2.43384,1.53507 -0.82059,0.48568 -1.54794,0.8499 -2.18206,1.09273 v 5.12561 c 0.55952,-0.15595 1.21228,-0.37296 1.95827,-0.65047 0.74599,-0.29485 1.50134,-0.61577 2.26597,-0.96269 0.76467,-0.36425 1.49202,-0.74585 2.18206,-1.14477 0.70871,-0.4163 1.30551,-0.8326 1.7904,-1.24887 v 26.33034 h 5.84678 v -32.83488 z m 33.06647,0 -14.60296,19.46156 v 6.34843 h 16.84097 v 7.02489 h 5.79082 v -7.02489 h 3.77663 v -4.76135 h -3.77663 v -21.04864 z m 61.88078,0 -14.60297,19.46156 v 6.34843 h 16.84098 v 7.02489 h 5.79082 v -7.02489 h 3.77663 v -4.76135 h -3.77663 v -21.04864 z m -59.64277,3.95475 v 17.09389 h -12.50486 z m 61.88078,0 v 17.09389 h -12.50482 z m -151.82051,2.54979 -7.049736,2.02939 v 1.76924 h 4.056376 v 23.65049 c 0,1.02336 -0.0466,1.99471 -0.1398,2.91402 -0.0745,0.93664 -0.22382,1.77791 -0.44761,2.52376 -0.20511,0.76318 -0.48489,1.41365 -0.83922,1.95137 -0.35445,0.55505 -0.79263,0.97132 -1.314836,1.24886 l -5.567034,-3.56449 c -0.279972,0.0867 -0.568842,0.20817 -0.867224,0.36426 -0.298304,0.17335 -0.559484,0.38159 -0.783308,0.62443 -0.24254,0.26039 -0.438252,0.55505 -0.587481,0.88464 -0.149343,0.34706 -0.223824,0.74585 -0.223824,1.19682 0,0.50301 0.121079,0.93664 0.363619,1.3009 0.223824,0.38159 0.540883,0.69381 0.951176,0.93665 0.391654,0.24298 0.848584,0.4163 1.370751,0.52038 0.522206,0.12149 1.081728,0.18223 1.678529,0.18223 1.809041,0 3.543488,-0.40763 5.203342,-1.22285 1.67853,-0.79789 3.10523,-2.03809 4.28019,-3.72058 0.48489,-0.71118 0.87655,-1.51774 1.17493,-2.41972 0.2983,-0.90193 0.5222,-1.82991 0.67143,-2.78393 0.16768,-0.95398 0.27959,-1.89933 0.33574,-2.83597 0.0558,-0.95399 0.084,-1.82996 0.084,-2.62785 v -22.92205 z m 15.74993,0 -7.0497,2.08143 v 1.82128 h 4.00042 v 14.44005 c 0,1.50904 0.17722,2.80998 0.53152,3.90271 0.37317,1.07544 0.89522,1.96871 1.56662,2.67989 0.69003,0.69381 1.51998,1.20548 2.48976,1.53507 0.98845,0.34706 2.09814,0.52035 3.32906,0.52035 0.83922,0 1.69712,-0.13002 2.57367,-0.39026 0.89522,-0.24298 1.7438,-0.54639 2.54575,-0.91064 0.82059,-0.3816 1.5759,-0.78923 2.26597,-1.22286 0.70871,-0.43364 1.30551,-0.8239 1.7904,-1.17082 v 3.04414 h 9.09189 v -2.08145 l -2.51776,-0.15595 c -0.33573,-0.0355 -0.63412,-0.15595 -0.89522,-0.36426 -0.24254,-0.20817 -0.36362,-0.47701 -0.36362,-0.80656 v -22.92197 h -2.34988 l -6.99375,2.08146 v 1.82124 h 4.02838 v 17.84846 c -0.33573,0.15594 -0.74599,0.32965 -1.23088,0.52034 -0.46625,0.17336 -0.96981,0.34707 -1.51066,0.52039 -0.54084,0.15594 -1.10969,0.28631 -1.70649,0.39026 -0.5968,0.10408 -1.18428,0.15594 -1.7624,0.15594 -1.00713,0 -1.86504,-0.13001 -2.57371,-0.39026 -0.70872,-0.27743 -1.28688,-0.67647 -1.73449,-1.19685 -0.42893,-0.52035 -0.74599,-1.15345 -0.95114,-1.89933 -0.18639,-0.74585 -0.27958,-1.58708 -0.27958,-2.52373 v -17.32807 z m 101.35358,7.72738 c 0.91382,0 1.77172,0.19964 2.57367,0.59842 0.80199,0.3816 1.49202,0.91061 2.07018,1.58708 0.5968,0.65914 1.06305,1.43969 1.39875,2.34163 0.35445,0.90198 0.53153,1.86466 0.53153,2.88802 0,1.0234 -0.17723,1.99471 -0.53153,2.91402 -0.33574,0.90198 -0.80195,1.6912 -1.39875,2.36767 -0.57816,0.67647 -1.26819,1.21416 -2.07018,1.61312 -0.80195,0.38159 -1.65985,0.57239 -2.57367,0.57239 -0.89522,0 -1.74381,-0.19076 -2.54575,-0.57239 -0.80195,-0.39896 -1.51066,-0.93665 -2.1261,-1.61312 -0.59681,-0.67647 -1.07237,-1.46569 -1.42671,-2.36767 -0.33574,-0.91931 -0.50357,-1.89062 -0.50357,-2.91402 0,-1.02336 0.16768,-1.98604 0.50357,-2.88802 0.35445,-0.90194 0.8299,-1.68249 1.42671,-2.34163 0.61544,-0.67647 1.32415,-1.20548 2.1261,-1.58708 0.80194,-0.39896 1.65053,-0.59842 2.54575,-0.59842 z"
       id="Author" />
  </g>
</svg>
