<?xml version="1.0" encoding="UTF-8" standalone="no"?>
<svg
   xmlns:dc="http://purl.org/dc/elements/1.1/"
   xmlns:cc="http://creativecommons.org/ns#"
   xmlns:rdf="http://www.w3.org/1999/02/22-rdf-syntax-ns#"
   xmlns:svg="http://www.w3.org/2000/svg"
   xmlns="http://www.w3.org/2000/svg"
   xmlns:sodipodi="http://sodipodi.sourceforge.net/DTD/sodipodi-0.dtd"
   xmlns:inkscape="http://www.inkscape.org/namespaces/inkscape"
   id="svg4306"
   width="22"
   height="22"
   version="1.1"
   style="enable-background:new"
   sodipodi:docname="minimize.svg"
   inkscape:version="0.92.5 (2060ec1f9f, 2020-04-08)">
  <defs
     id="defs22" />
  <style
     type="text/css"
     id="current-color-scheme">
      .ColorScheme-Highlight {
        color:#3daee9;
        stop-color:#3daee9;
      }
      .ColorScheme-ViewText {
        color:#31363b;
        stop-color:#31363b;
      }
      </style>
  <path
     style="fill:currentColor"
     d="M -11,0 A 11,11 0 0 0 -22,11 11,11 0 0 0 -11,22 11,11 0 0 0 0,11 11,11 0 0 0 -11,0 Z m 0,2 a 9,9 0 0 1 9,9 9,9 0 0 1 -9,9 9,9 0 0 1 -9,-9 9,9 0 0 1 9,-9 z"
     class="ColorScheme-Highlight"
     id="active-center"
     inkscape:connector-curvature="0"
     inkscape:label="" />
  <path
     style="fill:currentColor"
     d="M 55,0 A 11,11 0 0 0 44,11 11,11 0 0 0 55,22 11,11 0 0 0 66,11 11,11 0 0 0 55,0 Z m 0,2 a 9,9 0 0 1 9,9 9,9 0 0 1 -9,9 9,9 0 0 1 -9,-9 9,9 0 0 1 9,-9 z"
     class="ColorScheme-ViewText"
     id="inactive-center"
     inkscape:connector-curvature="0"
     inkscape:label="" />
  <path
     style="fill:currentColor"
     d="M 77,0 A 11,11 0 0 0 66,11 11,11 0 0 0 77,22 11,11 0 0 0 88,11 11,11 0 0 0 77,0 Z m 0,2 a 9,9 0 0 1 9,9 9,9 0 0 1 -9,9 9,9 0 0 1 -9,-9 9,9 0 0 1 9,-9 z"
     class="ColorScheme-ViewText"
     id="deactivated-center"
     inkscape:connector-curvature="0"
     inkscape:label="" />
  <path
     style="fill:currentColor"
     d="M 11,0 A 11,11 0 0 0 0,11 11,11 0 0 0 11,22 11,11 0 0 0 22,11 11,11 0 0 0 11,0 Z m 0,2 a 9,9 0 0 1 9,9 9,9 0 0 1 -9,9 9,9 0 0 1 -9,-9 9,9 0 0 1 9,-9 z M 6.4140625,7 5,8.414062 9.5859375,13 11,14.414062 12.414062,13 17,8.414062 15.585938,7 11,11.585938 Z"
     class="ColorScheme-Highlight"
     id="hover-center"
     inkscape:connector-curvature="0"
     inkscape:label="" />
  <g
     id="pressed-center"
     inkscape:label="">
    <path
       inkscape:connector-curvature="0"
       id="path865-3"
       d="M 33,0 A 11,11 0 0 0 22,11 11,11 0 0 0 33,22 11,11 0 0 0 44,11 11,11 0 0 0 33,0 Z m 0,2 a 9,9 0 0 1 9,9 9,9 0 0 1 -9,9 9,9 0 0 1 -9,-9 9,9 0 0 1 9,-9 z"
       style="opacity:0" />
    <path
       inkscape:connector-curvature="0"
       id="path4-3"
       class="ColorScheme-Highlight"
       d="M 27,8.414063 31.585937,13 33,14.414062 34.414062,13 39,8.414063 37.585938,7 33,11.585938 28.414062,7 Z"
       style="fill:currentColor" />
  </g>
  <path
     inkscape:connector-curvature="0"
     style="fill:#ffffff"
     d="m -5.1996133,-69.605569 c -0.1354167,0 -0.2630209,0.02604 -0.3828126,0.07813 -0.1197916,0.04687 -0.2265624,0.114584 -0.3203124,0.203125 -0.088542,0.08854 -0.1588542,0.192709 -0.2109376,0.3125 -0.052083,0.119792 -0.078125,0.247396 -0.078125,0.382813 0,0.135416 0.026042,0.265625 0.078125,0.390625 0.052083,0.119791 0.1223959,0.223958 0.2109376,0.3125 0.09375,0.08854 0.2005208,0.158854 0.3203124,0.210937 0.1197917,0.05208 0.2473959,0.07813 0.3828126,0.07813 0.1354166,0 0.2630208,-0.02604 0.3828124,-0.07813 0.1197917,-0.05208 0.2239584,-0.122396 0.3125,-0.210937 0.088542,-0.08854 0.15625,-0.192709 0.203125,-0.3125 0.052083,-0.125 0.078125,-0.255209 0.078125,-0.390625 10e-8,-0.135417 -0.026042,-0.263021 -0.078125,-0.382813 -0.046875,-0.119791 -0.1145833,-0.223958 -0.203125,-0.3125 -0.088542,-0.08854 -0.1927083,-0.15625 -0.3125,-0.203125 -0.1197916,-0.05208 -0.2473958,-0.07813 -0.3828124,-0.07813 z m 33.0390623,1.171875 c -0.546875,0 -1.052083,0.09375 -1.515625,0.28125 -0.458333,0.1875 -0.854166,0.489584 -1.1875,0.90625 -0.328125,0.416667 -0.585937,0.963542 -0.773437,1.640625 -0.1875,0.671875 -0.28125,1.492188 -0.28125,2.460938 0,0.973958 0.09635,1.776041 0.289062,2.40625 0.192709,0.625 0.450521,1.119791 0.773438,1.484375 0.322916,0.364583 0.695312,0.619791 1.117187,0.765625 0.421875,0.140625 0.861979,0.210937 1.320313,0.210937 0.458333,0 0.903646,-0.06771 1.335937,-0.203125 0.4375,-0.135416 0.822917,-0.34375 1.15625,-0.625 0.333334,-0.28125 0.601563,-0.638021 0.804688,-1.070312 0.203125,-0.432292 0.304687,-0.945313 0.304687,-1.539063 0,-0.395833 -0.04687,-0.75 -0.140625,-1.0625 -0.08854,-0.3125 -0.210937,-0.585937 -0.367187,-0.820312 -0.151042,-0.239584 -0.330729,-0.440104 -0.539063,-0.601563 -0.203125,-0.166666 -0.419271,-0.302083 -0.648437,-0.40625 -0.229167,-0.104166 -0.463542,-0.179687 -0.703125,-0.226562 -0.239584,-0.04687 -0.46875,-0.07031 -0.6875,-0.07031 -0.286459,0 -0.549479,0.02604 -0.789063,0.07813 -0.239583,0.05208 -0.455729,0.122396 -0.648437,0.210938 -0.192709,0.08333 -0.361979,0.182291 -0.507813,0.296875 -0.145833,0.114583 -0.270833,0.234375 -0.375,0.359375 0.07813,-0.71875 0.174479,-1.302084 0.289063,-1.75 0.119791,-0.447917 0.263021,-0.796875 0.429687,-1.046875 0.166667,-0.25 0.361979,-0.419271 0.585938,-0.507813 0.223958,-0.08854 0.476562,-0.132812 0.757812,-0.132812 0.244792,0 0.447917,0.04167 0.609375,0.125 0.161459,0.08333 0.291667,0.190104 0.390625,0.320312 0.09896,0.125 0.166667,0.268229 0.203125,0.429688 0.04167,0.15625 0.0625,0.307291 0.0625,0.453125 h 1.695313 c 0,-0.333334 -0.07031,-0.643229 -0.210938,-0.929688 -0.140625,-0.286458 -0.341146,-0.536458 -0.601562,-0.75 -0.260417,-0.213541 -0.572917,-0.380208 -0.9375,-0.5 -0.364584,-0.125 -0.768229,-0.1875 -1.210938,-0.1875 z m -17.632812,0.296875 c -0.0625,0.08333 -0.182292,0.200521 -0.3593751,0.351563 -0.177084,0.151041 -0.375,0.309896 -0.59375,0.476562 -0.21875,0.161459 -0.445313,0.315104 -0.679688,0.460938 -0.229166,0.145833 -0.432291,0.255208 -0.609375,0.328125 v 1.539062 c 0.15625,-0.04687 0.338542,-0.111979 0.546875,-0.195312 0.208334,-0.08854 0.419271,-0.184896 0.632813,-0.289063 0.213541,-0.109375 0.416666,-0.223958 0.609375,-0.34375 0.197916,-0.125 0.3645831,-0.25 0.5000001,-0.375 v 7.90625 h 1.632812 v -9.859375 z m 9.234375,0 -4.078125,5.84375 v 1.90625 h 4.703125 v 2.109375 h 1.617187 v -2.109375 h 1.054688 v -1.429687 h -1.054688 v -6.320313 z m 17.28125,0 -4.078125,5.84375 v 1.90625 h 4.703125 v 2.109375 h 1.617187 v -2.109375 h 1.054688 v -1.429687 h -1.054688 v -6.320313 z m -16.65625,1.1875 v 5.132813 h -3.492188 z m 17.28125,0 v 5.132813 h -3.492188 z m -42.3984379,0.765625 -1.96875,0.609375 v 0.53125 h 1.1328126 v 7.101563 c 0,0.307291 -0.013021,0.598958 -0.039063,0.875 -0.020833,0.28125 -0.0625,0.533854 -0.125,0.757812 -0.057292,0.229167 -0.1354166,0.424479 -0.234375,0.585938 -0.098958,0.166666 -0.2213541,0.291666 -0.3671874,0.375 l -1.5546873,-1.070313 c -0.07813,0.02604 -0.158854,0.0625 -0.242187,0.109375 -0.08333,0.05208 -0.15625,0.114584 -0.21875,0.1875 -0.06771,0.07813 -0.122396,0.166667 -0.164063,0.265625 -0.04167,0.104167 -0.0625,0.223959 -0.0625,0.359375 0,0.151042 0.03385,0.28125 0.101563,0.390625 0.0625,0.114584 0.151041,0.208334 0.265625,0.28125 0.109375,0.07292 0.236979,0.125 0.382812,0.15625 0.1458335,0.03646 0.3020835,0.05469 0.4687495,0.05469 0.505209,0 0.9895836,-0.122396 1.4531252,-0.367188 0.46875,-0.239583 0.8671876,-0.611979 1.1953126,-1.117187 0.1354166,-0.213542 0.2447916,-0.455729 0.328125,-0.726563 0.083333,-0.270833 0.1458333,-0.549479 0.1875,-0.835937 0.046875,-0.286459 0.078125,-0.570313 0.09375,-0.851563 0.015625,-0.286458 0.023437,-0.549479 0.023437,-0.789062 v -6.882813 z m 4.3984376,0 -1.96875,0.625 v 0.546875 h 1.1171874 v 4.335938 c 0,0.453125 0.049479,0.84375 0.1484376,1.171875 0.1041666,0.322916 0.25,0.591146 0.4375,0.804687 0.1927083,0.208334 0.4244791,0.361979 0.6953124,0.460938 0.2760417,0.104166 0.5859376,0.15625 0.9296876,0.15625 0.234375,0 0.4739582,-0.03906 0.7187502,-0.117188 0.25,-0.07292 0.486979,-0.164062 0.710937,-0.273437 0.229167,-0.114584 0.440104,-0.236979 0.632813,-0.367188 0.197916,-0.130208 0.364583,-0.247396 0.5,-0.351562 v 0.914062 h 2.539062 v -0.625 l -0.703125,-0.04687 c -0.09375,-0.01042 -0.177083,-0.04687 -0.25,-0.109375 -0.06771,-0.0625 -0.101562,-0.143229 -0.101562,-0.242187 v -6.882813 h -0.65625 l -1.953125,0.625 v 0.546875 h 1.125 v 5.359375 c -0.09375,0.04687 -0.208334,0.09896 -0.34375,0.15625 -0.130209,0.05208 -0.270834,0.104167 -0.421875,0.15625 -0.151042,0.04687 -0.309896,0.08594 -0.476563,0.117188 -0.166666,0.03125 -0.330729,0.04687 -0.492187,0.04687 -0.28125,0 -0.5208336,-0.03906 -0.7187502,-0.117188 -0.1979167,-0.08333 -0.359375,-0.203125 -0.484375,-0.359375 -0.1197917,-0.15625 -0.2083334,-0.346354 -0.265625,-0.570312 -0.052083,-0.223959 -0.078125,-0.476563 -0.078125,-0.757813 v -5.203125 z m 28.3046873,2.320313 c 0.255209,0 0.494792,0.0599 0.71875,0.179687 0.223959,0.114584 0.416667,0.273438 0.578125,0.476563 0.166667,0.197916 0.296875,0.432291 0.390625,0.703125 0.09896,0.270833 0.148438,0.559896 0.148438,0.867187 0,0.307292 -0.04948,0.598959 -0.148438,0.875 -0.09375,0.270834 -0.223958,0.507813 -0.390625,0.710938 -0.161458,0.203125 -0.354166,0.364583 -0.578125,0.484375 -0.223958,0.114583 -0.463541,0.171875 -0.71875,0.171875 -0.25,0 -0.486979,-0.05729 -0.710937,-0.171875 -0.223959,-0.119792 -0.421875,-0.28125 -0.59375,-0.484375 -0.166667,-0.203125 -0.299479,-0.440104 -0.398438,-0.710938 -0.09375,-0.276041 -0.140625,-0.567708 -0.140625,-0.875 0,-0.307291 0.04687,-0.596354 0.140625,-0.867187 0.09896,-0.270834 0.231771,-0.505209 0.398438,-0.703125 0.171875,-0.203125 0.369791,-0.361979 0.59375,-0.476563 0.223958,-0.119791 0.460937,-0.179687 0.710937,-0.179687 z"
     id="Author" />
</svg>
